<?xml version="1.0" encoding="UTF-8"?>
<!DOCTYPE svg PUBLIC "-//W3C//DTD SVG 1.1//EN" "http://www.w3.org/Graphics/SVG/1.1/DTD/svg11.dtd">
<!-- Creator: CorelDRAW -->
<svg xmlns="http://www.w3.org/2000/svg" xml:space="preserve" width="138.702mm" height="117.986mm" version="1.1" style="shape-rendering:geometricPrecision; text-rendering:geometricPrecision; image-rendering:optimizeQuality; fill-rule:evenodd; clip-rule:evenodd"
viewBox="0 0 12598.7 10717.02"
 xmlns:xlink="http://www.w3.org/1999/xlink"
 xmlns:xodm="http://www.corel.com/coreldraw/odm/2003">
 <defs>
  <style type="text/css">
   <![CDATA[
    .fil2 {fill:#FEFEFE}
    .fil0 {fill:black}
    .fil3 {fill:#2B2A29;fill-rule:nonzero}
    .fil1 {fill:#E31E24;fill-rule:nonzero}
   ]]>
  </style>
 </defs>
 <g id="Layer_x0020_1">
  <metadata id="CorelCorpID_0Corel-Layer"/>
  <g id="_2490633946448">
   <g>
    <path class="fil0" d="M6098.75 2709.07c102.73,-186.32 -169.58,-333.99 -271.7,-151.64 -37.05,66.14 -20.69,164.65 64.1,212.5 64.5,36.39 163.22,19.62 207.6,-60.87zm889.24 889.24c102.73,-186.32 -169.58,-333.98 -271.71,-151.65 -37.04,66.15 -20.68,164.65 64.11,212.5 64.5,36.4 163.22,19.63 207.6,-60.86zm2667.71 2667.71c102.73,-186.32 -169.58,-333.98 -271.71,-151.65 -37.04,66.15 -20.68,164.65 64.11,212.5 64.5,36.4 163.22,19.63 207.6,-60.86zm-1778.47 -1778.47c102.89,-186.42 -169.67,-333.85 -271.71,-151.64 -37.01,66.1 -20.7,164.71 64.11,212.49 64.48,36.32 163.17,19.65 207.6,-60.85zm889.24 889.23c104.36,-189.32 -171.86,-330.45 -271.72,-151.65 -94.56,169.32 170.76,334.82 271.72,151.65zm1333.22 1333.56c102.07,-198.55 -173.28,-326.41 -271.26,-151.35 -36.54,65.3 -19,166.1 64.32,212.72 66.44,37.19 165.72,18.83 206.94,-61.37zm-3556.94 -3556.93c102.07,-198.56 -173.29,-326.43 -271.26,-151.36 -36.54,65.3 -18.99,166.1 64.32,212.73 66.44,37.19 165.72,18.83 206.94,-61.37zm2667.71 2667.71c102.07,-198.56 -173.29,-326.43 -271.25,-151.35 -36.55,65.29 -19,166.09 64.31,212.72 66.44,37.19 165.72,18.82 206.94,-61.37zm-889.24 -889.24c102.11,-198.64 -173.38,-326.33 -271.27,-151.35 -36.39,65.03 -18.87,166.2 64.34,212.65 66.55,37.17 165.66,19 206.94,-61.29zm-889.24 -889.24c102.15,-199.51 -174.05,-325.83 -271.24,-151.35 -92.37,165.82 176.4,336.56 271.24,151.35zm3400.37 -543.99c391.71,362.17 899.49,899.59 1305.62,1304.02 142.98,142.38 191.72,278.19 102.94,430.11 -54.52,93.28 -1601.76,1617.13 -1718.63,1734 -161.3,-133.96 -354.38,55.85 -222.43,222.13 -100.62,101.97 -201.4,203.88 -302.3,305.77l441.38 0 1476.69 -1476.69c193.72,-193.71 570.58,-514.11 646.64,-740.99 105.43,-314.45 -31.06,-525.68 -239.07,-733.66 -484.66,-484.56 -996.77,-972.64 -1466.72,-1468.05 -125.37,125.37 -215.14,218.47 -363.65,292.95 -216.16,108.41 -502.35,126.48 -725.89,44.29 -122.5,-45.04 -248.97,-118.5 -355.86,-225.38 -220.53,-220.55 -277.63,-453.62 -274.5,-726.15 3.45,-301.78 176.23,-509.14 386.34,-719.26 -497.85,-472.28 -988.59,-987.01 -1475.46,-1474.14 -211.92,-212.03 -425.59,-337.47 -741.09,-226.13 -159.99,56.46 -242.91,157.88 -370.45,285.42l-6624.81 6624.81c-128.79,128.79 -224.37,210.88 -276.48,370.56 -20.02,61.33 -31.14,118.52 -34.6,172.42l313.17 0c3.31,-31.33 12.53,-63.95 28.22,-98.61 51.28,-113.23 681.28,-711.42 821.84,-851.98 1413.34,-1413.35 2825.5,-2843.93 4246.04,-4245.75 170.66,135.46 352.5,-66.32 222.13,-222.42 434.82,-434.82 869.63,-869.63 1304.44,-1304.45 339.6,-339.59 516.13,-656.1 867.07,-303.82 401.97,403.53 937.14,909.21 1296.62,1298.37 -367.87,479.27 -372.21,1181.97 89.23,1643.4 459.6,459.61 1166.89,459.31 1643.57,89.22z"/>
    <path class="fil1" d="M2942.15 7056.28c-300.66,107.99 -647.09,161.56 -1040.19,161.56 -386.19,0 -719.67,-73.43 -999.59,-221.17 -279.92,-147.73 -494.18,-357.67 -641.91,-630.68 -147.74,-272.14 -221.18,-586.62 -221.18,-942.56 0,-382.73 82.94,-723.99 247.96,-1022.05 165.02,-298.92 399.15,-529.6 701.53,-692.02 301.51,-163.29 648.82,-244.49 1041.92,-244.49 314.47,0 617.72,38.01 911.46,114.04l0 1010.82c-101.08,-60.48 -222.03,-107.99 -362,-141.69 -139.96,-33.69 -281.65,-50.1 -425.06,-50.1 -297.2,0 -531.33,85.53 -703.25,255.72 -171.07,170.2 -256.59,400.87 -256.59,692.89 0,290.28 85.53,519.23 256.59,686.83 171.92,167.6 400.86,251.41 687.7,251.41 265.23,0 532.19,-67.39 802.61,-202.16l0 973.66zm3264.85 0c-300.66,107.99 -647.09,161.56 -1040.19,161.56 -386.19,0 -719.67,-73.43 -999.59,-221.17 -279.92,-147.73 -494.18,-357.67 -641.91,-630.68 -147.74,-272.14 -221.18,-586.62 -221.18,-942.56 0,-382.73 82.94,-723.99 247.96,-1022.05 165.02,-298.92 399.15,-529.6 701.53,-692.02 301.51,-163.29 648.82,-244.49 1041.92,-244.49 314.47,0 617.72,38.01 911.46,114.04l0 1010.82c-101.08,-60.48 -222.03,-107.99 -362,-141.69 -139.96,-33.69 -281.65,-50.1 -425.06,-50.1 -297.2,0 -531.33,85.53 -703.25,255.72 -171.07,170.2 -256.59,400.87 -256.59,692.89 0,290.28 85.53,519.23 256.59,686.83 171.92,167.6 400.86,251.41 687.7,251.41 265.23,0 532.19,-67.39 802.61,-202.16l0 973.66zm3083.42 -999.59c0,241.04 -64.79,450.99 -193.52,629.82 -128.73,178.84 -310.16,311.88 -542.56,400.01 -232.41,87.25 -512.32,131.32 -839.76,131.32 -379.27,0 -726.57,-63.93 -1041.92,-192.66l0 -994.4c152.05,111.44 319.66,202.16 503.69,270.41 184.02,68.25 355.07,102.81 514.04,102.81 119.23,0 212.53,-21.6 278.19,-64.8 65.66,-43.19 98.49,-105.39 98.49,-188.33 0,-58.75 -16.41,-111.45 -49.25,-155.51 -32.83,-44.93 -82.94,-86.39 -149.46,-125.27 -66.53,-38.89 -190.07,-92.45 -371.5,-159.83 -584.03,-224.63 -876.05,-587.49 -876.05,-1088.58 0,-350.76 133.05,-631.54 400.01,-841.48 266.09,-209.93 623.77,-315.34 1073.02,-315.34 126.14,0 242.77,5.18 349.03,15.55 106.27,9.5 203.03,22.46 290.29,37.15 86.39,15.55 208.21,44.05 365.45,86.39l0 923.56c-305.83,-165.88 -605.63,-248.82 -901.1,-248.82 -121.82,0 -219.44,22.46 -293.74,68.25 -74.29,45.79 -111.44,107.99 -111.44,187.48 0,75.16 30.24,138.23 89.85,188.33 59.6,49.25 184.88,114.04 375.81,193.53 375.82,151.19 641.92,317.93 798.28,498.5 156.38,179.69 234.13,393.96 234.13,641.91z"/>
    <path class="fil2" d="M7890.93 4355.28c-40.95,-108.48 -209.88,-154.26 -285.42,-19.37 -37.01,66.1 -20.7,164.71 64.11,212.49 35.76,20.15 82.04,23.98 123.76,9.67 -0.69,-7.75 -1.04,-15.62 -1.04,-23.64 0,-74.76 32.86,-134.24 98.58,-179.14zm875.53 1021.49c104.36,-189.32 -171.86,-330.45 -271.72,-151.65 -94.56,169.32 170.76,334.82 271.72,151.65zm443.98 444.34c23.2,-45.13 26.85,-86.58 17.58,-121.68 -4.03,-10.65 -8.25,-21.2 -12.67,-31.66 -52.12,-94.66 -207.59,-120.55 -276.16,1.99 -36.55,65.29 -19,166.09 64.31,212.72 66.44,37.19 165.72,18.82 206.94,-61.37zm-1174.24 -1005.11c-14.9,62.06 8.87,138.54 78.07,177.17 64.15,35.82 158.53,20.24 202.23,-52.85 -19.19,-8.06 -38.68,-16.07 -58.49,-24.03 -87.84,-36.57 -161.77,-70.02 -221.81,-100.29zm-604.23 -773.36c102.15,-199.51 -174.05,-325.83 -271.24,-151.35 -92.37,165.82 176.4,336.56 271.24,151.35z"/>
   </g>
   <path class="fil3" d="M1056 8791.85c-96.81,34.77 -208.36,52.02 -334.94,52.02 -124.35,0 -231.73,-23.64 -321.87,-71.21 -90.12,-47.57 -159.12,-115.18 -206.69,-203.08 -47.57,-87.64 -71.21,-188.9 -71.21,-303.51 0,-123.23 26.7,-233.12 79.83,-329.1 53.14,-96.25 128.53,-170.53 225.89,-222.82 97.09,-52.58 208.92,-78.73 335.49,-78.73 101.26,0 198.91,12.24 293.49,36.72l0 325.48c-32.55,-19.47 -71.49,-34.77 -116.56,-45.63 -45.07,-10.85 -90.69,-16.13 -136.87,-16.13 -95.7,0 -171.09,27.54 -226.45,82.34 -55.08,54.81 -82.62,129.08 -82.62,223.1 0,93.48 27.54,167.2 82.62,221.16 55.35,53.97 129.07,80.96 221.43,80.96 85.41,0 171.37,-21.7 258.44,-65.1l0 313.52zm1854.62 31.99l-51.47 -215.32 -348.84 0 -55.36 215.32 -380.56 0 402.54 -1168.39 437.03 0 378.89 1168.39 -382.23 0zm-222.27 -914.68l-8.08 0c-1.11,13.07 -4.72,34.49 -11.4,64.26 -6.4,30.05 -39.5,158.29 -98.76,384.74l223.67 0 -81.51 -317.7c-11.4,-46.73 -19.47,-90.69 -23.92,-131.3zm2751.48 914.68l0 -640.39c0,-60.37 1.95,-126.58 5.57,-198.91l2.5 -53.69 -9.74 0c-17.24,91.8 -30.59,155.23 -39.78,190.57l-172.2 702.42 -330.77 0 -179.99 -694.08c-5,-17.52 -17.8,-83.73 -38.39,-198.91l-9.74 0c7.51,182.49 11.41,296.55 11.41,342.18l0 550.81 -308.8 0 0 -1168.39 527.17 0 160.52 634.27c3.89,13.08 8.9,39.5 15.3,79.57 6.12,39.78 10.02,70.66 11.68,92.36l5.01 0c5.84,-49.52 15.3,-107.66 28.38,-174.98l149.94 -631.22 519.1 0 0 1168.39 -347.18 0zm2472.2 -783.1c0,79.84 -20.31,150.77 -60.65,212.81 -40.33,62.04 -98.2,109.88 -173.03,143.82 -74.84,33.94 -162.18,50.9 -261.5,50.9l-107.38 0 0 375.56 -352.19 0 0 -1168.39 479.04 0c164.41,0 284.86,31.16 361.36,93.75 76.23,62.32 114.34,159.68 114.34,291.55zm-372.22 11.96c0,-47.85 -13.91,-84.01 -41.45,-108.49 -27.82,-24.49 -68.44,-36.72 -122.12,-36.72l-66.77 0 0 288.76 79.01 0c100.98,0 151.34,-47.85 151.34,-143.54zm2470.53 237.29c0,187.22 -42.85,326.59 -128.25,417.56 -85.68,90.97 -217.54,136.31 -395.59,136.31 -166.35,0 -292.37,-45.34 -378.61,-136.31 -85.96,-90.97 -129.08,-228.11 -129.08,-411.16l0 -640.94 353.86 0 0 654.31c0,74.83 13.91,132.42 42.01,173.03 28.09,40.34 68.15,60.65 120.45,60.65 52.57,0 92.63,-18.92 120.17,-57.03 27.54,-38.11 41.17,-94.3 41.17,-168.58l0 -662.37 353.86 0 0 634.55zm1968.68 179.99c0,77.62 -20.86,145.21 -62.32,202.8 -41.45,57.59 -99.86,100.42 -174.7,128.8 -74.83,28.09 -164.96,42.28 -270.4,42.28 -122.12,0 -233.95,-20.58 -335.49,-62.04l0 -320.19c48.96,35.88 102.93,65.09 162.18,87.07 59.25,21.97 114.33,33.1 165.52,33.1 38.39,0 68.43,-6.96 89.57,-20.86 21.15,-13.91 31.72,-33.94 31.72,-60.64 0,-18.92 -5.29,-35.89 -15.86,-50.08 -10.57,-14.47 -26.7,-27.82 -48.12,-40.34 -21.42,-12.52 -61.2,-29.77 -119.63,-51.47 -188.05,-72.33 -282.08,-189.17 -282.08,-350.52 0,-112.94 42.85,-203.36 128.8,-270.95 85.68,-67.6 200.86,-101.54 345.51,-101.54 40.62,0 78.17,1.67 112.39,5.01 34.22,3.05 65.37,7.23 93.48,11.96 27.81,5 67.04,14.18 117.67,27.81l0 297.39c-98.48,-53.42 -195.01,-80.12 -290.16,-80.12 -39.22,0 -70.66,7.24 -94.58,21.98 -23.92,14.74 -35.88,34.77 -35.88,60.37 0,24.2 9.74,44.51 28.93,60.64 19.19,15.86 59.53,36.72 121.01,62.32 121.02,48.68 206.7,102.37 257.05,160.51 50.35,57.86 75.39,126.86 75.39,206.69zm-10936.37 1813.61c-85.13,41.17 -196.68,61.76 -334.1,61.76 -179.15,0 -320.2,-52.58 -422.85,-158.01 -102.93,-105.43 -154.12,-245.92 -154.12,-421.46 0,-186.94 57.59,-338.55 173.03,-454.84 115.45,-116.28 265.4,-174.43 449.56,-174.43 114.05,0 210.31,14.47 288.48,43.4l0 253.43c-78.17,-46.74 -167.19,-70.1 -267.34,-70.1 -109.61,0 -198.34,34.49 -265.67,103.49 -67.32,68.99 -100.98,162.46 -100.98,280.41 0,112.94 31.71,203.08 95.42,270.12 63.42,67.04 149.1,100.71 256.77,100.71 102.65,0 196.67,-25.03 281.8,-75.11l0 240.63zm576.13 61.76c-139.09,0 -248.42,-38.95 -327.98,-116.84 -79.56,-77.9 -119.35,-183.88 -119.35,-317.42 0,-137.98 41.17,-246.19 123.8,-324.09 82.62,-77.89 194.46,-116.84 334.94,-116.84 138.54,0 247.31,38.95 326.04,116.84 78.72,77.9 118.23,181.1 118.23,309.35 0,138.54 -40.61,248.15 -121.84,328.54 -81.23,80.4 -192.51,120.45 -333.83,120.45zm6.68 -677.95c-60.92,0 -108.21,20.86 -141.87,62.59 -33.66,42.01 -50.63,101.26 -50.63,177.77 0,160.23 64.82,240.35 194.17,240.35 123.24,0 185,-82.35 185,-246.76 0,-156.06 -62.32,-233.96 -186.67,-233.96zm1422.1 657.64l-256.77 0 0 -463.74c0,-129.36 -46.18,-193.9 -138.54,-193.9 -44.51,0 -81.23,16.98 -109.89,51.19 -28.93,34.22 -43.39,77.89 -43.39,130.46l0 475.98 -257.33 0 0 -834.56 257.33 0 0 132.14 3.33 0c61.48,-101.82 150.78,-152.45 268.18,-152.45 184.72,0 277.08,114.61 277.08,343.84l0 511.03zm708.27 -9.74c-38.11,20.03 -95.42,30.05 -171.92,30.05 -181.38,0 -272.34,-94.31 -272.34,-282.64l0 -382.22 -135.2 0 0 -190 135.2 0 0 -179.99 256.77 -73.45 0 253.43 187.5 0 0 190 -187.5 0 0 337.44c0,86.79 34.49,130.19 103.49,130.19 27.26,0 55.35,-7.79 84.01,-23.65l0 190.84zm689.62 -592.54c-31.16,-16.97 -67.33,-25.32 -108.49,-25.32 -55.92,0 -99.59,20.58 -131.31,61.48 -31.44,41.17 -47.29,96.81 -47.29,167.47l0 398.65 -257.33 0 0 -834.56 257.33 0 0 154.95 3.33 0c40.89,-113.22 114.06,-169.69 220.05,-169.69 27.26,0 48.4,3.33 63.7,9.74l0 237.29zm510.75 622.59c-139.09,0 -248.42,-38.95 -327.98,-116.84 -79.56,-77.9 -119.35,-183.88 -119.35,-317.42 0,-137.98 41.17,-246.19 123.8,-324.09 82.62,-77.89 194.46,-116.84 334.94,-116.84 138.54,0 247.31,38.95 326.04,116.84 78.72,77.9 118.23,181.1 118.23,309.35 0,138.54 -40.61,248.15 -121.84,328.54 -81.23,80.4 -192.51,120.45 -333.83,120.45zm6.68 -677.95c-60.92,0 -108.21,20.86 -141.87,62.59 -33.66,42.01 -50.63,101.26 -50.63,177.77 0,160.23 64.82,240.35 194.17,240.35 123.24,0 185,-82.35 185,-246.76 0,-156.06 -62.32,-233.96 -186.67,-233.96zm873.51 657.64l-257.33 0 0 -1235.44 257.33 0 0 1235.44zm648.74 -44.79l0 -260.94c47.29,39.78 98.75,69.54 154.12,89.3 55.35,19.75 111.27,29.77 167.74,29.77 33.39,0 62.32,-3.06 86.8,-8.9 24.76,-6.12 45.34,-14.19 62.04,-25.04 16.69,-10.56 28.93,-23.09 37,-37.28 8.35,-14.46 12.24,-30.04 12.24,-47.01 0,-22.82 -6.39,-43.13 -19.47,-60.93 -13.08,-18.08 -30.88,-34.77 -53.42,-49.79 -22.53,-15.3 -49.24,-30.04 -80.4,-43.95 -30.87,-14.19 -64.26,-28.65 -100.14,-43.39 -91.25,-37.84 -159.4,-84.29 -204.19,-139.37 -44.79,-54.81 -67.04,-121.02 -67.04,-198.62 0,-60.93 11.96,-113.22 36.44,-156.9 24.48,-43.95 57.86,-79.83 99.87,-108.21 42.28,-28.1 90.97,-48.97 146.32,-62.32 55.36,-13.35 114.06,-20.03 176.1,-20.03 60.92,0 114.89,3.9 161.9,11.13 46.74,7.24 90.13,18.64 129.92,33.94l0 243.69c-19.76,-13.62 -40.89,-25.59 -63.98,-35.88 -23.09,-10.3 -47.02,-18.92 -71.49,-25.88 -24.21,-6.68 -48.69,-11.68 -72.88,-15.01 -24.21,-3.06 -47.02,-4.73 -68.72,-4.73 -30.05,0 -57.02,2.78 -81.5,8.35 -24.49,5.84 -45.07,13.91 -62.04,24.2 -16.7,10.29 -29.77,22.54 -39.22,37.01 -9.18,14.46 -13.63,30.59 -13.63,48.4 0,19.76 5,37.28 15.3,52.58 10.3,15.58 25.04,30.32 44.24,44.23 18.92,13.63 42.01,27.27 69.27,40.62 26.99,13.35 57.86,26.99 92.08,41.17 46.73,19.47 88.46,40.33 125.74,62.31 37.28,21.97 69.27,47.02 95.7,74.56 26.7,27.81 47.02,59.53 61.2,95.14 14.19,35.33 21.14,76.78 21.14,124.07 0,65.37 -12.24,119.9 -37,164.41 -24.76,44.24 -58.14,80.12 -100.71,107.38 -42.28,27.54 -91.52,47.3 -147.71,59.26 -56.48,11.96 -115.73,17.8 -178.32,17.8 -63.98,0 -124.9,-5.29 -182.76,-16.14 -57.87,-10.85 -108.22,-27.26 -150.5,-48.96zm1717.25 -789.77l-339.11 901.33c-81.51,216.71 -204.19,325.21 -368.33,325.21 -62.31,0 -113.78,-6.96 -154.12,-21.15l0 -205.3c34.5,20.03 71.49,30.04 111.83,30.04 66.21,0 112.39,-31.16 138.54,-93.75l43.95 -103.49 -339.12 -832.89 285.42 0 155.51 507.69c9.74,31.44 17.53,68.72 22.82,111.83l3.33 0c5,-31.72 13.91,-68.43 26.99,-110.16l157.18 -509.36 255.1 0zm48.96 812.59l0 -208.64c42.56,25.59 84.85,44.51 126.85,57.02 42.01,12.52 81.8,18.64 119.35,18.64 45.63,0 81.79,-6.12 107.94,-18.64 26.43,-12.52 39.5,-31.44 39.5,-57.02 0,-16.41 -5.84,-30.05 -17.8,-40.89 -11.96,-10.85 -27.26,-20.31 -46.18,-28.38 -18.64,-8.07 -39.22,-15.58 -61.48,-21.98 -22.25,-6.68 -43.68,-13.91 -64.26,-21.97 -33.11,-12.52 -62.31,-26.15 -87.63,-40.34 -25.32,-14.47 -46.46,-31.16 -63.71,-50.35 -16.97,-18.92 -30.04,-40.89 -38.94,-65.94 -8.9,-25.03 -13.63,-54.53 -13.63,-88.74 0,-46.73 10.29,-87.07 30.6,-120.73 20.31,-33.66 47.57,-61.2 81.5,-82.62 33.94,-21.43 72.88,-37.28 116.57,-47.3 43.67,-10.01 89.3,-15.02 136.59,-15.02 37.01,0 74.27,2.79 112.39,8.63 38.11,5.56 75.67,13.91 112.67,24.75l0 198.91c-32.83,-19.19 -67.6,-33.38 -104.88,-42.84 -37.28,-9.46 -73.72,-14.19 -109.61,-14.19 -16.97,0 -32.83,1.39 -47.57,4.45 -15.02,2.78 -28.38,7.23 -39.78,13.07 -11.4,5.57 -20.3,12.8 -26.7,21.98 -6.68,8.9 -9.74,19.19 -9.74,30.6 0,15.02 4.73,28.09 14.47,38.94 10.01,10.85 22.54,20.31 38.39,28.1 15.86,8.07 33.39,15.01 52.58,21.14 19.19,6.4 38.39,12.8 57.58,19.19 34.22,11.96 65.1,25.04 92.92,39.23 27.54,14.19 51.46,30.6 71.21,49.79 19.75,18.91 35.05,41.17 45.63,66.76 10.56,25.6 15.85,55.92 15.85,91.25 0,49.51 -10.56,91.8 -32.26,126.85 -21.43,35.05 -49.79,63.43 -85.41,85.41 -35.61,21.97 -76.77,38.1 -123.23,48.12 -46.46,10.01 -94.58,15.02 -144.66,15.02 -91.8,0 -176.64,-14.19 -255.1,-42.28zm1293.58 12.24c-38.11,20.03 -95.42,30.05 -171.92,30.05 -181.38,0 -272.34,-94.31 -272.34,-282.64l0 -382.22 -135.2 0 0 -190 135.2 0 0 -179.99 256.77 -73.45 0 253.43 187.5 0 0 190 -187.5 0 0 337.44c0,86.79 34.49,130.19 103.49,130.19 27.26,0 55.35,-7.79 84.01,-23.65l0 190.84zm888.53 -334.1l-544.41 0c8.62,121.01 85.12,181.66 228.94,181.66 91.8,0 172.47,-21.7 242.02,-65.1l0 185.84c-77.06,41.17 -177.21,61.76 -300.72,61.76 -134.64,0 -239.24,-37.28 -313.8,-112.12 -74.27,-74.56 -111.55,-178.87 -111.55,-312.4 0,-138.54 40.06,-248.42 120.74,-329.38 80.4,-80.95 179.15,-121.29 296.55,-121.29 121.56,0 215.87,36.17 282.35,108.22 66.49,72.33 99.87,170.53 99.87,294.33l0 108.49zm-238.68 -158.29c0,-119.34 -48.4,-179.15 -145.21,-179.15 -41.17,0 -77.06,16.97 -107.1,51.18 -30.33,34.22 -48.4,77.06 -55.08,127.97l307.4 0zm1716.97 502.13l-256.77 0 0 -475.98c0,-121.29 -44.51,-181.66 -133.52,-181.66 -42.28,0 -76.78,18.08 -103.49,54.53 -26.7,36.44 -40.06,81.79 -40.06,136.03l0 467.08 -257.33 0 0 -480.99c0,-117.67 -43.95,-176.65 -131.3,-176.65 -43.95,0 -79.29,17.25 -105.44,52.02 -26.42,34.78 -39.78,82.07 -39.78,141.88l0 463.74 -257.33 0 0 -834.56 257.33 0 0 130.47 3.33 0c26.7,-44.51 63.98,-80.96 112.12,-108.77 48.12,-28.09 100.7,-42.01 157.73,-42.01 117.95,0 198.62,51.75 242.02,155.51 63.7,-103.76 156.9,-155.51 280.41,-155.51 181.38,0 272.06,111.83 272.06,335.77l0 519.1z"/>
  </g>
 </g>
</svg>
